<?xml version="1.0" encoding="utf-8"?>
<!-- Generator: Adobe Illustrator 25.2.1, SVG Export Plug-In . SVG Version: 6.00 Build 0)  -->
<svg version="1.1" id="Layer_1" xmlns="http://www.w3.org/2000/svg" xmlns:xlink="http://www.w3.org/1999/xlink" x="0px" y="0px"
	 viewBox="0 0 512 512" style="enable-background:new 0 0 512 512;" xml:space="preserve">
<style type="text/css">
	.st0{fill:#FFFF64;}
</style>
<g>
	<path class="st0" d="M256.5,209.6c-39,0-70.5,31.6-70.5,70.5c0,39,31.6,70.5,70.5,70.5S327,319,327,280.1
		C327.1,241.2,295.5,209.6,256.5,209.6L256.5,209.6z M444.6,139h-56.4c-7.8,0-16.1-6-18.6-13.4L355,81.8
		c-2.5-7.4-10.8-13.4-18.6-13.4H176.5c-7.8,0-16.1,6-18.6,13.4l-14.6,43.8c-2.5,7.4-10.8,13.4-18.6,13.4H68.3c-25.9,0-47,21.2-47,47
		v211.6c0,25.9,21.2,47,47,47h376.3c25.9,0,47-21.2,47-47V186.1C491.7,160.2,470.5,139,444.6,139L444.6,139z M256.5,397.7
		c-64.9,0-117.6-52.6-117.6-117.6c0-64.9,52.6-117.6,117.6-117.6c64.9,0,117.6,52.7,117.6,117.6
		C374.1,345.1,321.4,397.7,256.5,397.7L256.5,397.7z M428.2,219c-9.1,0-16.5-7.4-16.5-16.5s7.4-16.4,16.5-16.4s16.5,7.4,16.5,16.4
		C444.6,211.6,437.3,219,428.2,219L428.2,219z"/>
</g>
</svg>
