<?xml version="1.0" encoding="utf-8"?>
<!-- Generator: Adobe Illustrator 25.2.1, SVG Export Plug-In . SVG Version: 6.00 Build 0)  -->
<svg version="1.1" id="Layer_1" xmlns="http://www.w3.org/2000/svg" xmlns:xlink="http://www.w3.org/1999/xlink" x="0px" y="0px"
	 viewBox="0 0 613.5 512" style="enable-background:new 0 0 613.5 512;" xml:space="preserve">
<style type="text/css">
	.st0{fill:#FFFF64;}
</style>
<path class="st0" d="M534.4,75.6c-0.9-2.2-2.9-3.8-5.3-4.1c-2.4-0.3-4.8,0.8-6.2,2.7c-8.3,11.7-19.2,15.6-31.9,20.1
	c-10.2,3.6-20.8,7.4-32.2,15.6c-16.1,11.6-23.5,27.4-19.8,42.3l-0.4,0.5c-6.7-9.8-14.1-18.8-21.8-26.9
	c-36.2-37.7-86.7-60.4-138.7-62.2c-2.3-0.1-4.6-0.1-6.9-0.1c-58,0-113.5,25.9-152.4,71.2c-38.6,45-55.7,103.5-46.9,160.7
	c0.7,4.8,1.7,9.6,2.7,14.3c14.3,62.8,50.7,110.6,100,131.1c12.1,5.1,24.4,7.6,36.4,7.6c29.8,0,55.9-16,71.5-43.8
	c5.9-10.6,9.8-21.5,11.4-32.5c0.9-6.5,0.3-13-0.3-19.3c-0.6-6.5-1.3-12.6-0.3-18.8c2.2-14.1,12.1-22.6,26.4-22.6
	c4.1,0,8.2,0.7,12.4,2c-4.9,8.9-9.3,17.4-13.1,25.3c-8.2,16.7-13.8,30.5-16.7,41.1c-1.8,6.5-6.6,23.8,5.1,32
	c3.7,2.6,8.5,3.5,13.4,2.6c4.4-0.8,18-3.3,56.4-47.1c10.3-11.7,21.4-25.3,33-40.4c29.8-10,53-35,59.2-63.8
	c1.5-7.2,2.2-14.9,1.9-22.8c11.2-17.3,21-33.4,30.8-50.7c0.2-0.3,0.4-0.7,0.6-1.1c14.3-3.9,26.6-15,33.9-30.6
	C547.1,135.1,546.3,105.9,534.4,75.6L534.4,75.6z M373.1,183.2c-5.2,8.2-14.1,13.1-23.8,13.1c-5.3,0-10.4-1.5-14.9-4.3
	c-6.4-4-10.8-10.2-12.4-17.5c-1.7-7.3-0.4-14.8,3.6-21.2c5.2-8.2,14.1-13.1,23.8-13.1c5.3,0,10.4,1.5,14.9,4.3
	c6.3,4,10.8,10.2,12.4,17.5C378.4,169.3,377.1,176.9,373.1,183.2L373.1,183.2z M409.6,234.1c14.2-20.9,29.2-41.7,43.5-60.2
	c2.3,2.1,4.9,4.1,7.7,6.1c4.6,3.2,9.5,5.7,14.5,7.4c-12,20.6-25,41-40.7,64.1c-25.8,38-52.5,73.2-75.4,99.3
	c-12.8,14.6-24,25.8-32.6,32.8c3.3-10.6,9.7-25.2,18.5-42.5C360.9,310,383.8,272.1,409.6,234.1L409.6,234.1z M160.3,233.9
	c-5.3,0-10.4-1.5-14.9-4.3c-6.3-4-10.8-10.2-12.4-17.5c-1.7-7.3-0.4-14.8,3.6-21.2c5.2-8.2,14.1-13.1,23.8-13.1
	c5.3,0,10.5,1.5,14.9,4.3c13.1,8.3,17.1,25.6,8.8,38.7C178.9,229,170,233.9,160.3,233.9L160.3,233.9z M130.8,295.8
	c5.2-8.2,14.1-13.1,23.8-13.1c5.3,0,10.4,1.5,14.9,4.3c6.3,4,10.8,10.2,12.4,17.5c1.7,7.3,0.4,14.8-3.6,21.2
	c-5.2,8.2-14.1,13.1-23.8,13.1c-5.3,0-10.4-1.5-14.9-4.3c-6.3-4-10.8-10.2-12.4-17.5C125.6,309.6,126.8,302.1,130.8,295.8
	L130.8,295.8z M220.8,129c5.2-8.2,14.1-13.1,23.8-13.1c5.3,0,10.4,1.5,14.9,4.3c13.1,8.3,17.1,25.6,8.8,38.7
	c-5.2,8.2-14.1,13.1-23.8,13.1c-5.3,0-10.4-1.5-14.9-4.3c-6.3-4-10.8-10.2-12.4-17.5C215.5,142.8,216.8,135.3,220.8,129L220.8,129z"
	/>
</svg>
