<?xml version="1.0" encoding="utf-8"?>
<!-- Generator: Adobe Illustrator 21.0.0, SVG Export Plug-In . SVG Version: 6.00 Build 0)  -->
<svg version="1.1" id="Layer_1" xmlns="http://www.w3.org/2000/svg" xmlns:xlink="http://www.w3.org/1999/xlink" x="0px" y="0px"
	 viewBox="0 0 613.5 512" style="enable-background:new 0 0 613.5 512;" xml:space="preserve">
<style type="text/css">
	.st0{fill:#FFFF64;}
	.st1{fill:#FFECA5;stroke:#FFFF64;stroke-width:3.2936;stroke-miterlimit:10;}
	.st2{fill:#FFCF18;}
	.st3{fill:#FFCF18;stroke:#FFFF64;stroke-width:2.2958;}
	.st4{opacity:0.85;fill:#FFCF18;}
	.st5{fill:#FFCB04;}
	.st6{fill:#FFFFFF;}
</style>
<path class="st0" d="M336.3,430.1c-2.2,0.9-4.1,2.3-6.4,3c-9.1,2.7-18.4,4-27.9,4.2c-7.4,0.1-14.8-0.3-22.2-1.5
	c-6-0.9-11.9-2.1-17.1-5.4c-0.3-0.2-0.6-0.3-1-0.3c-1.7-1-3.4-1.9-5.1-2.9c0,0,0,0,0,0c-0.2-0.4-0.6-0.5-1-0.5c0,0.9,0,1.8,0,2.6
	l0.1,0l0.1,0c0,0,0.1,0,0.1,0c0,0,0,0,0,0.1l-0.1,0c0.1,0.6,0,1.2,0.2,1.8c0,0,0,0,0,0c0,0.2,0,0.4,0.1,0.7c0,0.2,0,0.3,0,0.5
	c0.1,0.3,0.1,0.6,0.2,1c0,0.2,0,0.5,0.1,0.7c0,0.2,0,0.3,0,0.5l0,0c0.1,0.3,0.1,0.6,0.2,1c0.1,0.7,0.2,1.3,0.5,1.9
	c0,0.5,0.2,1,0.4,1.5c0.1,0.1,0.1,0.3,0.2,0.4c0,0,0,0,0,0c0.1,0.5,0.2,0.9,0.5,1.2c0.1,0.6,0.4,1,0.7,1.4c0.2,0.2,0.3,0.5,0.5,0.7
	c0.1,0.2,0.2,0.4,0.4,0.5c0.1,0.3,0.5,0.5,0.5,0.9c-0.1,0.1-0.1,0.2-0.2,0.2c-0.2,0.1-0.2,0.3-0.2,0.5c-0.1,0.1-0.2,0.2-0.2,0.3
	c-0.3,0.4-0.6,0.8-1,1.2c-0.2,0.2-0.3,0.3-0.5,0.5c-0.2,0.1-0.2,0.3-0.2,0.5c-0.1,0.2-0.2,0.5-0.2,0.7c-0.1,0.3-0.2,0.6-0.3,0.9
	c-0.2,0.5-0.3,1,0,1.5c0,0.1,0,0.2,0,0.2l0,0c0.2,0.7,0.3,1.3,0.7,1.9c0,0.3,0.1,0.5,0.4,0.7c0,0,0,0,0,0c0.1,0.4,0.2,0.7,0.5,1
	c0.1,0.2,0.2,0.5,0.3,0.7c0.1,0.2,0.2,0.5,0.3,0.7c-0.1,0.3-0.2,0.6-0.3,0.9c-0.3,0-0.4,0.2-0.5,0.5c-0.1,0.1-0.2,0.1-0.2,0.2
	c-0.1,0.1-0.2,0.2-0.3,0.2l0,0c0,0,0,0,0,0c-0.5,0.5-0.7,1.2-0.7,2l0,0c-0.1,0.2-0.1,0.5-0.2,0.7c0,0.1,0,0.2,0,0.2
	c-0.1,0.6-0.1,1.1,0.2,1.7c0.1,0.5,0.3,1,0.7,1.5c0.1,0.4,0.4,0.6,0.6,0.9c0.1,0.2,0.1,0.3,0.2,0.5c0.2,0.3,0.3,0.6,0.5,1
	c0.1,0.2,0.1,0.3,0.2,0.5h0c0,0,0,0,0,0c-0.1,0.5-0.1,1-0.2,1.4h0c-0.1,0.2-0.2,0.4-0.3,0.7h0l0,0v0l0,0l0,0
	c-0.3,0.2-0.3,0.5-0.4,0.7c-0.1,0.2-0.2,0.3-0.3,0.5c-0.3,0.3-0.5,0.5-0.5,0.9c-0.3,0.2-0.2,0.5-0.3,0.8c-0.4,0.7-0.2,1.4,0.1,2.1
	l0,0c0,0.6,0.2,1.2,0.6,1.7c0.2,0.5,0.3,0.9,0.7,1.2c0.2,0.2,0.3,0.5,0.5,0.7c0.2,0.4,0.3,0.8,0.7,1c0.2,0.4,0.5,0.8,0.7,1.2
	c0,0.1,0,0.3-0.1,0.4c-0.2,0.1-0.2,0.3-0.2,0.5c-0.1,0.1-0.2,0.2-0.2,0.2c-0.2,0.1-0.2,0.3-0.3,0.5c-0.1,0.2-0.2,0.3-0.3,0.5
	c0,0,0,0,0,0c-0.1,0.1-0.1,0.2-0.2,0.2c-0.5,1.1-0.5,2.2-0.5,3.4c0.1,0.3,0.3,0.6,0.4,1c0.1,0.4,0.3,0.7,0.5,0.9
	c0.1,0.4,0.4,0.7,0.7,1c0.1,0.2,0.3,0.3,0.4,0.5c0,0,0,0,0,0c0.8,1.1,1.9,1.8,3,2.6c0.6,0.8,1.5,1.3,2.3,1.9c3.8,2.9,7.4,6,11.6,8.2
	c2,1.5,4.1,2.8,6.2,4.1c0,0,0,0,0,0c3,2.2,6.2,4.3,9.6,5.8c2.8,1.2,5.6,1.2,8.5,0.1c3.4-1.3,6.7-2.9,9.8-4.7
	c2.1-1.2,4.3-2.3,6.2-3.8c1.9-1,3.6-2.2,5.3-3.4c1.5-1,3.2-2,4.5-3.3c1.6-1.1,3-2.5,4.1-4.1c0.9-0.9,1.7-1.8,2.4-2.9c0,0,0,0,0,0
	c0.7-0.8,1.4-1.5,2-2.4c0,0,0,0,0,0c0.8-0.9,2-1.5,2.6-2.7c0.2-0.2,0.6-0.3,0.5-0.7c0.3-0.4,0.7-0.7,0.7-1.2
	c0.3-0.4,0.3-0.9,0.2-1.4c0-0.2,0-0.3,0-0.5c0.1-0.2,0.2-0.5,0.3-0.7c0.2-0.6,0.3-1.3,0.3-2c0,0,0,0,0,0c0-0.5,0.1-1-0.2-1.4
	c-0.1-0.1-0.2-0.2-0.2-0.2c0-0.2,0-0.4-0.2-0.5c0-0.4-0.3-0.6-0.5-1c0-0.1,0-0.2,0-0.2c-0.1-0.3-0.1-0.6-0.2-1c0-0.2,0-0.5,0-0.7
	c0,0,0,0,0,0l0,0c0.2-0.4,0.3-0.8,0.5-1.2c0,0,0,0,0,0h0c0.1-0.2,0.1-0.3,0.2-0.5c0,0,0,0,0,0c0,0,0,0,0,0c0.2-0.3,0.5-0.5,0.5-0.9
	c0.2-0.2,0.3-0.4,0.2-0.7c0.1-0.2,0.3-0.4,0.3-0.7c0.2-0.4,0.4-0.8,0-1.2c0-0.2,0-0.5-0.1-0.7c-0.1-0.1-0.1-0.2-0.2-0.3
	c-0.1-0.2-0.2-0.3-0.3-0.5c-0.1-0.2-0.2-0.4-0.3-0.7c0,0,0,0,0,0l0,0c-0.3-0.5-0.6-1-0.9-1.4c0,0-0.1,0-0.1,0c0,0,0,0,0-0.1
	c0,0,0,0,0,0c0,0,0,0,0,0c0,0,0.1,0,0.1,0c-0.1-0.2-0.2-0.3-0.3-0.5c0-0.2,0-0.5,0-0.7c0-0.1,0-0.2,0-0.2c0.2-0.5,0.3-1,0.5-1.4
	c0.1-0.1,0.2-0.3,0.3-0.4c0.3-0.3,0.4-0.6,0.5-1c0.1-0.2,0.2-0.3,0.2-0.5c0.3-0.4,0.4-0.8,0.5-1.2c0.1-0.2,0.2-0.5,0.2-0.7
	c0,0,0,0,0,0l0,0c0.3-0.8,0.5-1.5-0.2-2.2c0-0.1,0-0.2-0.1-0.2c0-0.3,0.1-0.7-0.2-0.9c0-0.5-0.3-0.8-0.5-1.2
	c-0.1-0.2-0.2-0.3-0.3-0.5c0-0.2,0-0.5,0-0.7l0,0c0-0.7,0-1.5,0-2.2c0-0.2,0-0.3,0-0.5c0.1-0.3,0.2-0.6,0.3-0.9
	c0.1-0.3,0.2-0.6,0.3-0.9c0.2-0.2,0.2-0.4,0.3-0.7c0.1-0.2,0.2-0.5,0.2-0.7c0.1-0.2,0.2-0.5,0.2-0.7c0,0,0,0,0,0
	c0.2-0.5,0.2-1,0.2-1.5h0c0-0.2,0-0.3,0-0.5c0-0.2,0-0.3,0-0.5c0-0.2,0-0.3,0-0.5c0-0.5,0-1,0-1.4c0-0.1,0-0.2,0-0.2
	c0.1-0.4-0.1-0.8-0.2-1.2c-0.1-0.2-0.1-0.3-0.2-0.5h0c-0.1-0.2-0.2-0.3-0.3-0.5c0-0.2,0-0.3,0-0.5c-0.1-0.2-0.2-0.5-0.2-0.7
	c0,0,0,0,0,0c0,0,0,0,0,0c-0.2-0.7-0.3-1.4-0.5-2.2c0,0,0,0,0,0c0-0.4,0-0.8,0-1.2c0-0.2,0-0.3,0-0.5c0.1-0.2,0.2-0.5,0.2-0.7
	c0.1-0.2,0.2-0.4,0.3-0.7c0.5-0.5,1-1,1.5-1.5c0.4-0.2,0.7-0.5,0.8-1l0,0h0c0.1-0.2,0.2-0.3,0.3-0.5c0.1-0.2,0.2-0.3,0.3-0.5l-0.1,0
	c0,0,0,0,0,0c0,0,0,0,0,0c0,0,0,0,0,0c0,0,0.1,0,0.1,0l0.1,0l0.1,0c0-0.4,0-0.8,0-1.2c0-0.2,0-0.5,0-0.7
	C341.8,427,339.1,428.5,336.3,430.1z M307.6,508.1C307.6,508.1,307.6,508.1,307.6,508.1C307.6,508.1,307.6,508.1,307.6,508.1
	C307.6,508.1,307.6,508.1,307.6,508.1z M267.5,443.8C267.5,443.8,267.5,443.8,267.5,443.8C267.5,443.8,267.5,443.8,267.5,443.8
	C267.5,443.8,267.5,443.8,267.5,443.8z M315.4,452.9C315.5,452.9,315.5,452.9,315.4,452.9C315.5,452.9,315.5,452.9,315.4,452.9
	C315.5,452.9,315.5,452.9,315.4,452.9C315.4,452.9,315.4,452.9,315.4,452.9z M320.3,479.6c0,0,0.1,0,0.1,0
	C320.4,479.5,320.4,479.5,320.3,479.6C320.4,479.5,320.3,479.5,320.3,479.6C320.3,479.6,320.3,479.6,320.3,479.6z M334.7,451.5
	C334.7,451.5,334.7,451.5,334.7,451.5C334.7,451.5,334.7,451.5,334.7,451.5C334.7,451.5,334.7,451.5,334.7,451.5z M341.4,476.4
	C341.4,476.4,341.4,476.4,341.4,476.4C341.4,476.4,341.4,476.4,341.4,476.4C341.4,476.4,341.4,476.4,341.4,476.4z M285,505.2
	C285,505.2,285,505.2,285,505.2C285,505.2,285,505.3,285,505.2C285,505.3,285,505.2,285,505.2z"/>
<g>
	<g>
		<path class="st1" d="M200,279.8c0-57.9,48.6-102,102.1-102s99.6,44.1,101.2,101.2c0.9,31.6-29,77.1-38.3,92.7
			c-7.4,12.3-10.2,33.4-12.1,39.7c0,0-1.3,27.2-57.9,27.2c-38.7,0-48.3-18.3-48.8-25.4c-1.1-14.8,0.6-17.8-10.5-41.5
			C224.5,348,200,318.2,200,279.8z"/>
		<path class="st2" d="M244.4,387.3c1.2,2.5,2.3,17.2,2.7,20.3c0.4,3.2,1.3,13.5,12.2,19.5c10.8,5.9,31.1,7.2,40.7,7.2
			c9.5,0,27.1-2.7,33.9-6.3c6.7-3.6,17.1-10.9,18.5-21.7c1.3-11,9.1-32.4,8.5-32.3c-13.5,4.8-78.1,9.7-86.2,9.3
			c-8.1-0.4-31.6-1.8-31.6-1.8S243.1,384.6,244.4,387.3z"/>
		<path class="st2" d="M243.8,383.7c2.4,3,51.3,6.8,56.6,4.5c5.4-2.3,19.4-6.3,24.9-4.5c5.4,1.8,26.5-1.6,30.9-4.9
			c8.4-6.3,4.3-9-2.5-5.9c-6.8,3.2-37,3.6-42.4,4.1c-5.4,0.4-50.6,2.3-54.2,2.3C253.5,379.2,240.1,379.2,243.8,383.7z"/>
		<path class="st3" d="M289.4,384.3c0.6-13.1,1.8-10,2.3-14c0.6-4-1.7-0.6-4-9.1c-2.3-8.5-18.2-72.3-18.2-72.3s36.4,6.8,41,8.5
			c4.6,1.7,15.3-0.6,21.6,0c6.3,0.6,1.2-3.4,1.2-3.4s-21,64.9-21.6,70.6c-0.6,5.7,0.6,8.5,0.6,8.5s1.7,2.3,1.7,6.8"/>
		<path class="st4" d="M263.8,409.5c0.4-11.1-7.5-51.7-16.4-69.5c-9-17.8-31.7-73.5,10.6-97.6c42.3-24.1,104.7-2.7,106.9,39.2
			c2.2,41.9-18.3,36.5-27.6,82.9c-9.4,46.3-7.6,41.9-12.9,44.1c-5.4,2.2-15.2-3.1-20.5-1.8c-5.3,1.3-16,4.9-23.1,4
			C273.6,410,263.8,409.5,263.8,409.5z"/>
		<path class="st5" d="M238.8,232.6c14.7,0.9,36.6,7.1,37.4,8.5c0.9,1.3,23.7-6.7,45.5-4c21.4,2.7,32.5,12,32.5,12s18.3,0,24.5,5.8
			c6.2,5.8-10.2-54.4-63.7-63.3C261.6,182.7,238.8,232.6,238.8,232.6z"/>
	</g>
	<g>
		<rect x="288.6" class="st6" width="30.5" height="95.9"/>
		
			<rect x="474.1" y="77.7" transform="matrix(0.7071 0.7071 -0.7071 0.7071 232.1996 -309.2063)" class="st6" width="30.5" height="95.9"/>
		
			<rect x="550.3" y="263.8" transform="matrix(4.391935e-11 1 -1 4.391935e-11 877.3026 -253.7448)" class="st6" width="30.5" height="95.9"/>
		
			<rect x="108.9" y="77.7" transform="matrix(-0.7071 0.7071 -0.7071 -0.7071 300.8024 126.7767)" class="st6" width="30.5" height="95.9"/>
		
			<rect x="32.7" y="263.8" transform="matrix(-9.099761e-11 1 -1 -9.099761e-11 359.7449 263.8129)" class="st6" width="30.5" height="95.9"/>
	</g>
</g>
</svg>
