<?xml version="1.0" encoding="utf-8"?>
<!-- Generator: Adobe Illustrator 25.2.1, SVG Export Plug-In . SVG Version: 6.00 Build 0)  -->
<svg version="1.1" id="Layer_1" xmlns="http://www.w3.org/2000/svg" xmlns:xlink="http://www.w3.org/1999/xlink" x="0px" y="0px"
	 viewBox="0 0 613.5 512" style="enable-background:new 0 0 613.5 512;" xml:space="preserve">
<style type="text/css">
	.st0{fill:#FFFF64;}
</style>
<g>
	<path class="st0" d="M302.1,177.8c-53.5,0-102.1,44.1-102.1,102c0,38.4,24.5,68.2,35.7,91.9c11.1,23.7,9.4,26.7,10.5,41.5
		c0.2,3.4,2.6,9.5,9.4,14.8c0,0.4,0,0.9,0,1.3h0.1h0.1h0.1c0,0,0,0,0,0.1h-0.1c0.1,0.6,0,1.2,0.2,1.8c0,0.2,0,0.4,0.1,0.7
		c0,0.2,0,0.3,0,0.5c0.1,0.3,0.1,0.6,0.2,1c0,0.2,0,0.5,0.1,0.7c0,0.2,0,0.3,0,0.5c0.1,0.3,0.1,0.6,0.2,1c0.1,0.7,0.2,1.3,0.5,1.9
		c0,0.5,0.2,1,0.4,1.5c0.1,0.1,0.1,0.3,0.2,0.4c0.1,0.5,0.2,0.9,0.5,1.2c0.1,0.6,0.4,1,0.7,1.4c0.2,0.2,0.3,0.5,0.5,0.7
		c0.1,0.2,0.2,0.4,0.4,0.5c0.1,0.3,0.5,0.5,0.5,0.9c-0.1,0.1-0.1,0.2-0.2,0.2c-0.2,0.1-0.2,0.3-0.2,0.5c-0.1,0.1-0.2,0.2-0.2,0.3
		c-0.3,0.4-0.6,0.8-1,1.2c-0.2,0.2-0.3,0.3-0.5,0.5c-0.2,0.1-0.2,0.3-0.2,0.5c-0.1,0.2-0.2,0.5-0.2,0.7c-0.1,0.3-0.2,0.6-0.3,0.9
		c-0.2,0.5-0.3,1,0,1.5c0,0.1,0,0.2,0,0.2c0.2,0.7,0.3,1.3,0.7,1.9c0,0.3,0.1,0.5,0.4,0.7c0.1,0.4,0.2,0.7,0.5,1
		c0.1,0.2,0.2,0.5,0.3,0.7c0.1,0.2,0.2,0.5,0.3,0.7c-0.1,0.3-0.2,0.6-0.3,0.9c-0.3,0-0.4,0.2-0.5,0.5c-0.1,0.1-0.2,0.1-0.2,0.2
		c-0.1,0.1-0.2,0.2-0.3,0.2c-0.5,0.5-0.7,1.2-0.7,2c-0.1,0.2-0.1,0.5-0.2,0.7c0,0.1,0,0.2,0,0.2c-0.1,0.6-0.1,1.1,0.2,1.7
		c0.1,0.5,0.3,1,0.7,1.5c0.1,0.4,0.4,0.6,0.6,0.9c0.1,0.2,0.1,0.3,0.2,0.5c0.2,0.3,0.3,0.6,0.5,1c0.1,0.2,0.1,0.3,0.2,0.5
		c-0.1,0.5-0.1,1-0.2,1.4c-0.1,0.2-0.2,0.4-0.3,0.7c-0.3,0.2-0.3,0.5-0.4,0.7c-0.1,0.2-0.2,0.3-0.3,0.5c-0.3,0.3-0.5,0.5-0.5,0.9
		c-0.3,0.2-0.2,0.5-0.3,0.8c-0.4,0.7-0.2,1.4,0.1,2.1c0,0.6,0.2,1.2,0.6,1.7c0.2,0.5,0.3,0.9,0.7,1.2c0.2,0.2,0.3,0.5,0.5,0.7
		c0.2,0.4,0.3,0.8,0.7,1c0.2,0.4,0.5,0.8,0.7,1.2c0,0.1,0,0.3-0.1,0.4c-0.2,0.1-0.2,0.3-0.2,0.5c-0.1,0.1-0.2,0.2-0.2,0.2
		c-0.2,0.1-0.2,0.3-0.3,0.5c-0.1,0.2-0.2,0.3-0.3,0.5c-0.1,0.1-0.1,0.2-0.2,0.2c-0.5,1.1-0.5,2.2-0.5,3.4c0.1,0.3,0.3,0.6,0.4,1
		c0.1,0.4,0.3,0.7,0.5,0.9c0.1,0.4,0.4,0.7,0.7,1c0.1,0.2,0.3,0.3,0.4,0.5c0.8,1.1,1.9,1.8,3,2.6c0.6,0.8,1.5,1.3,2.3,1.9
		c3.8,2.9,7.4,6,11.6,8.2c2,1.5,4.1,2.8,6.2,4.1c3,2.2,6.2,4.3,9.6,5.8c2.8,1.2,5.6,1.2,8.5,0.1c3.4-1.3,6.7-2.9,9.8-4.7
		c2.1-1.2,4.3-2.3,6.2-3.8c1.9-1,3.6-2.2,5.3-3.4c1.5-1,3.2-2,4.5-3.3c1.6-1.1,3-2.5,4.1-4.1c0.9-0.9,1.7-1.8,2.4-2.9
		c0.7-0.8,1.4-1.5,2-2.4c0.8-0.9,2-1.5,2.6-2.7c0.2-0.2,0.6-0.3,0.5-0.7c0.3-0.4,0.7-0.7,0.7-1.2c0.3-0.4,0.3-0.9,0.2-1.4
		c0-0.2,0-0.3,0-0.5c0.1-0.2,0.2-0.5,0.3-0.7c0.2-0.6,0.3-1.3,0.3-2c0-0.5,0.1-1-0.2-1.4c-0.1-0.1-0.2-0.2-0.2-0.2
		c0-0.2,0-0.4-0.2-0.5c0-0.4-0.3-0.6-0.5-1c0-0.1,0-0.2,0-0.2c-0.1-0.3-0.1-0.6-0.2-1c0-0.2,0-0.5,0-0.7c0.2-0.4,0.3-0.8,0.5-1.2
		c0.1-0.2,0.1-0.3,0.2-0.5c0.2-0.3,0.5-0.5,0.5-0.9c0.2-0.2,0.3-0.4,0.2-0.7c0.1-0.2,0.3-0.4,0.3-0.7c0.2-0.4,0.4-0.8,0-1.2
		c0-0.2,0-0.5-0.1-0.7c-0.1-0.1-0.1-0.2-0.2-0.3c-0.1-0.2-0.2-0.3-0.3-0.5c-0.1-0.2-0.2-0.4-0.3-0.7c-0.3-0.5-0.6-1-0.9-1.4H340
		c0,0,0,0,0-0.1h0.1c-0.1-0.2-0.2-0.3-0.3-0.5c0-0.2,0-0.5,0-0.7c0-0.1,0-0.2,0-0.2c0.2-0.5,0.3-1,0.5-1.4c0.1-0.1,0.2-0.3,0.3-0.4
		c0.3-0.3,0.4-0.6,0.5-1c0.1-0.2,0.2-0.3,0.2-0.5c0.3-0.4,0.4-0.8,0.5-1.2c0.1-0.2,0.2-0.5,0.2-0.7c0.3-0.8,0.5-1.5-0.2-2.2
		c0-0.1,0-0.2-0.1-0.2c0-0.3,0.1-0.7-0.2-0.9c0-0.5-0.3-0.8-0.5-1.2c-0.1-0.2-0.2-0.3-0.3-0.5c0-0.2,0-0.5,0-0.7c0-0.7,0-1.5,0-2.2
		c0-0.2,0-0.3,0-0.5c0.1-0.3,0.2-0.6,0.3-0.9s0.2-0.6,0.3-0.9c0.2-0.2,0.2-0.4,0.3-0.7c0.1-0.2,0.2-0.5,0.2-0.7
		c0.1-0.2,0.2-0.5,0.2-0.7c0.2-0.5,0.2-1,0.2-1.5c0-0.2,0-0.3,0-0.5s0-0.3,0-0.5s0-0.3,0-0.5c0-0.5,0-1,0-1.4c0-0.1,0-0.2,0-0.2
		c0.1-0.4-0.1-0.8-0.2-1.2c-0.1-0.2-0.1-0.3-0.2-0.5c-0.1-0.2-0.2-0.3-0.3-0.5c0-0.2,0-0.3,0-0.5c-0.1-0.2-0.2-0.5-0.2-0.7
		c-0.2-0.7-0.3-1.4-0.5-2.2c0-0.4,0-0.8,0-1.2c0-0.2,0-0.3,0-0.5c0.1-0.2,0.2-0.5,0.2-0.7c0.1-0.2,0.2-0.4,0.3-0.7
		c0.5-0.5,1-1,1.5-1.5c0.4-0.2,0.7-0.5,0.8-1c0.1-0.2,0.2-0.3,0.3-0.5s0.2-0.3,0.3-0.5h0.1h0.1c0-0.4,0-0.8,0-1.2c0-0.2,0-0.5,0-0.7
		c-0.1,0-0.2,0.1-0.3,0.2c8.5-7.1,8.8-14.6,8.8-14.6c1.9-6.3,4.7-27.4,12.1-39.7c9.3-15.6,39.2-61.1,38.3-92.7
		C401.7,221.9,355.6,177.8,302.1,177.8z"/>
	<rect x="288.6" class="st0" width="30.5" height="95.9"/>
	
		<rect x="441.4" y="110.4" transform="matrix(0.7071 -0.7071 0.7071 0.7071 54.4785 382.8432)" class="st0" width="95.9" height="30.5"/>
	<rect x="517.6" y="296.6" class="st0" width="95.9" height="30.5"/>
	
		<rect x="108.9" y="77.8" transform="matrix(0.7071 -0.7071 0.7071 0.7071 -52.5265 124.622)" class="st0" width="30.5" height="95.9"/>
	<rect x="0" y="296.5" class="st0" width="95.9" height="30.5"/>
</g>
</svg>
