<?xml version="1.0" encoding="utf-8"?>
<!-- Generator: Adobe Illustrator 21.0.0, SVG Export Plug-In . SVG Version: 6.00 Build 0)  -->
<svg version="1.1" id="Layer_1" xmlns="http://www.w3.org/2000/svg" xmlns:xlink="http://www.w3.org/1999/xlink" x="0px" y="0px"
	 viewBox="0 0 512 512" style="enable-background:new 0 0 512 512;" xml:space="preserve">
<style type="text/css">
	.st0{fill:#FFFF64;}
</style>
<g>
	<g>
		<path class="st0" d="M472.2,133.9h-54.3V35.1c0-9.4-7.6-17.1-17.1-17.1H111.2c-9.4,0-17.1,7.6-17.1,17.1v98.8H39.8
			c-22,0-39.8,17.9-39.8,39.8v171.7c0,22,17.9,39.8,39.8,39.8h54.3v91.6c0,9.4,7.6,17.1,17.1,17.1h289.6c9.4,0,17.1-7.6,17.1-17.1
			v-91.6h54.3c22,0,39.8-17.9,39.8-39.8V173.7C512,151.8,494.1,133.9,472.2,133.9z M128.3,52.2h255.5v81.7H128.3V52.2z M383.7,459.8
			H128.3c0-3.3,0-135.5,0-139.6h255.5C383.7,324.4,383.7,456.6,383.7,459.8z M477.9,345.4c0,3.1-2.6,5.7-5.7,5.7h-54.3v-48
			c0-9.4-7.6-17.1-17.1-17.1H111.2c-9.4,0-17.1,7.6-17.1,17.1v48H39.8c-3.1,0-5.7-2.6-5.7-5.7V173.7c0-3.1,2.6-5.7,5.7-5.7
			c13.1,0,419.6,0,432.4,0c3.1,0,5.7,2.6,5.7,5.7V345.4L477.9,345.4z"/>
	</g>
</g>
<g>
	<g>
		<path class="st0" d="M400.8,200h-43.4c-9.4,0-17.1,7.6-17.1,17.1s7.6,17.1,17.1,17.1h43.4c9.4,0,17.1-7.6,17.1-17.1
			S410.2,200,400.8,200z"/>
	</g>
</g>
<g>
	<g>
		<path class="st0" d="M330,399.8H182c-9.4,0-17.1,7.6-17.1,17.1S172.6,434,182,434h148c9.4,0,17.1-7.6,17.1-17.1
			S339.4,399.8,330,399.8z"/>
	</g>
</g>
<g>
	<g>
		<path class="st0" d="M330,346H182c-9.4,0-17.1,7.6-17.1,17.1s7.6,17.1,17.1,17.1h148c9.4,0,17.1-7.6,17.1-17.1S339.4,346,330,346z
			"/>
	</g>
</g>
</svg>
