<?xml version="1.0" encoding="utf-8"?>
<!-- Generator: Adobe Illustrator 24.2.1, SVG Export Plug-In . SVG Version: 6.00 Build 0)  -->
<svg version="1.1" id="Layer_1" xmlns="http://www.w3.org/2000/svg" xmlns:xlink="http://www.w3.org/1999/xlink" x="0px" y="0px"
	 viewBox="0 0 512 512" style="enable-background:new 0 0 512 512;" xml:space="preserve">
<style type="text/css">
	.st0{fill:#FFFF64;}
</style>
<rect x="128.3" y="52.2" class="st0" width="255.5" height="81.7"/>
<path class="st0" d="M128.3,320.2c0,4.1,0,136.3,0,139.6h255.4c0-3.2,0-135.4,0.1-139.6H128.3z M330,434H182
	c-9.4,0-17.1-7.6-17.1-17.1s7.7-17.1,17.1-17.1h148c9.4,0,17.1,7.6,17.1,17.1S339.4,434,330,434z M330,380.2H182
	c-9.5,0-17.1-7.6-17.1-17.1S172.6,346,182,346h148c9.4,0,17.1,7.6,17.1,17.1S339.4,380.2,330,380.2z"/>
<path class="st0" d="M472.2,168c-12.8,0-419.3,0-432.4,0c-3.1,0-5.7,2.6-5.7,5.7v171.7c0,3.1,2.6,5.7,5.7,5.7h54.3v-48
	c0-9.5,7.7-17.1,17.1-17.1h289.6c9.5,0,17.1,7.7,17.1,17.1v48h54.3c3.1,0,5.7-2.6,5.7-5.7V173.7C477.9,170.6,475.3,168,472.2,168z
	 M400.8,234.2h-43.4c-9.5,0-17.1-7.6-17.1-17.1S348,200,357.4,200h43.4c9.4,0,17.1,7.6,17.1,17.1S410.2,234.2,400.8,234.2z"/>
</svg>
